<svg xmlns="http://www.w3.org/2000/svg" width="1638" height="391" viewBox="0 0 1638 391">
  <g fill="none" fill-rule="evenodd">
    <g fill="#000" fill-rule="nonzero">
      <rect width="44" height="44" x="455"/>
      <rect width="44" height="44" y="57"/>
      <rect width="44" height="44" x="114" y="57"/>
      <path d="M228 57C228 81.300529 247.699471 101 272 101L272 57 228 57zM385.217813 56.5085044C361.106408 56.5085044 341.560252 76.0546603 341.560252 100.166065L385.217813 100.166065 385.217813 56.5085044z"/>
      <rect width="44" height="44" x="399" y="57"/>
      <path d="M455 101C479.300529 101 499 81.300529 499 57L455 57 455 101zM569 57C569 81.300529 588.699471 101 613 101L613 57 569 57zM726.885682 56.5085044C702.774277 56.5085044 683.228121 76.0546603 683.228121 100.166065L726.885682 100.166065 726.885682 56.5085044z"/>
      <rect width="44" height="44" x="740" y="57"/>
      <path d="M797 101C821.300529 101 841 81.300529 841 57L797 57 797 101zM955 57C930.699471 57 911 76.699471 911 101L955 101 955 57z"/>
      <rect width="44" height="44" x="968" y="57"/>
      <path d="M1069 101C1069 76.699471 1049.30053 57 1025 57L1025 101 1069 101zM1139 57C1139 81.300529 1158.69947 101 1183 101L1183 57 1139 57zM1297 57C1272.69947 57 1253 76.699471 1253 101L1297 101 1297 57z"/>
      <rect width="44" height="44" x="1310" y="57"/>
      <path d="M1411 101C1411 76.699471 1391.30053 57 1367 57L1367 101 1411 101zM1524 57C1499.69947 57 1480 76.699471 1480 101L1524 101 1524 57z"/>
      <rect width="44" height="44" x="1537" y="57"/>
      <path d="M1594,101 C1618.30053,101 1638,81.300529 1638,57 L1594,57 L1594,101 Z"/>
      <rect width="44" height="44" y="113"/>
      <path d="M114,157 C138.300529,157 158,137.300529 158,113 L114,113 L114,157 Z"/>
      <rect width="44" height="44" x="228" y="113"/>
      <rect width="44" height="44" x="342" y="113"/>
      <path d="M499,113 C474.699471,113 455,132.699471 455,157 L499,157 L499,113 Z"/>
      <rect width="44" height="44" x="569" y="113"/>
      <path d="M683.228121,113.453149 C683.228121,137.564554 702.774277,157.11071 726.885682,157.11071 L726.885682,113.453149 L683.228121,113.453149 Z"/>
      <rect width="44" height="44" x="740" y="113"/>
      <path d="M841 157C841 132.699471 821.300529 113 797 113L797 157 841 157zM911 157C935.300529 157 955 137.300529 955 113L911 113 911 157z"/>
      <rect width="44" height="44" x="1025" y="113"/>
      <rect width="44" height="44" x="1139" y="113"/>
      <rect width="44" height="44" x="1253" y="113"/>
      <rect width="44" height="44" x="1367" y="113"/>
      <rect width="44" height="44" x="1480" y="113"/>
      <path d="M1537,157 C1561.30053,157 1581,137.300529 1581,113 L1537,113 L1537,157 Z"/>
      <rect width="44" height="44" y="170"/>
      <path d="M57,214 C81.300529,214 101,194.300529 101,170 L57,170 L57,214 Z"/>
      <rect width="44" height="44" x="228" y="170"/>
      <path d="M341.560252,170.397794 C341.560252,194.509199 361.106408,214.055355 385.217813,214.055355 L385.217813,170.397794 L341.560252,170.397794 Z"/>
      <rect width="44" height="44" x="399" y="170"/>
      <path d="M455,214 C479.300529,214 499,194.300529 499,170 L455,170 L455,214 Z"/>
      <rect width="44" height="44" x="569" y="170"/>
      <path d="M726.885682,170.397794 C702.774277,170.397794 683.228121,189.94395 683.228121,214.055355 L726.885682,214.055355 L726.885682,170.397794 Z"/>
      <rect width="44" height="44" x="740" y="170"/>
      <path d="M797 214C821.300529 214 841 194.300529 841 170L797 170 797 214zM954.664262 170.397794C930.552857 170.397794 911.006701 189.94395 911.006701 214.055355L954.664262 214.055355 954.664262 170.397794z"/>
      <rect width="44" height="44" x="968" y="170"/>
      <path d="M1025,214 C1049.30053,214 1069,194.300529 1069,170 L1025,170 L1025,214 Z"/>
      <rect width="44" height="44" x="1139" y="170"/>
      <rect width="44" height="44" x="1253" y="170"/>
      <rect width="44" height="44" x="1367" y="170"/>
      <path d="M1480.45315,170.397794 C1480.45315,194.509199 1499.99931,214.055355 1524.11071,214.055355 L1524.11071,170.397794 L1480.45315,170.397794 Z"/>
      <rect width="44" height="44" x="1537" y="170"/>
      <path d="M1638,214.055355 C1638,189.94395 1618.45384,170.397794 1594.34244,170.397794 L1594.34244,214.055355 L1638,214.055355 Z"/>
      <rect width="44" height="44" x="911" y="227"/>
    </g>
    <path fill="#4A4A4A" fill-opacity=".832" d="M62.9477533,363 L52.7280267,336.88916 L19.8227533,336.88916 L9.71533144,363 L0.0571283102,363 L32.513183,280.568359 L40.5429682,280.568359 L72.8305658,363 L62.9477533,363 Z M49.7519525,328.297852 L40.2060541,302.86084 C38.9706964,299.641423 37.6979226,295.692081 36.3876947,291.012695 C35.5641229,294.606463 34.3849355,298.555805 32.8500971,302.86084 L23.1918939,328.297852 L49.7519525,328.297852 Z M128.777636,363 L128.777636,323.187988 C128.777636,318.171687 127.635883,314.428235 125.352343,311.95752 C123.068803,309.486804 119.493806,308.251465 114.627246,308.251465 C108.188411,308.251465 103.471662,309.99217 100.476855,313.473633 C97.4820483,316.955096 95.9846674,322.701295 95.9846674,330.712402 L95.9846674,363 L86.6633784,363 L86.6633784,301.457031 L94.2439448,301.457031 L95.760058,309.879883 L96.2092768,309.879883 C98.118466,306.847641 100.795034,304.498625 104.239062,302.832764 C107.68309,301.166902 111.520128,300.333984 115.750292,300.333984 C123.162439,300.333984 128.740183,302.121483 132.483691,305.696533 C136.227199,309.271584 138.098925,314.989707 138.098925,322.851074 L138.098925,363 L128.777636,363 Z M248.027734,363 L237.808007,336.88916 L204.902734,336.88916 L194.795312,363 L185.137109,363 L217.593164,280.568359 L225.622949,280.568359 L257.910546,363 L248.027734,363 Z M234.831933,328.297852 L225.286035,302.86084 C224.050677,299.641423 222.777903,295.692081 221.467675,291.012695 C220.644104,294.606463 219.464916,298.555805 217.930078,302.86084 L208.271875,328.297852 L234.831933,328.297852 Z M299.819531,300.333984 C302.552292,300.333984 305.004253,300.558592 307.175488,301.007812 L305.883984,309.655273 C303.338398,309.093747 301.092327,308.812988 299.145703,308.812988 C294.166837,308.812988 289.90866,310.834452 286.371045,314.877441 C282.833429,318.92043 281.064648,323.955374 281.064648,329.982422 L281.064648,363 L271.743359,363 L271.743359,301.457031 L279.43623,301.457031 L280.503125,312.855957 L280.952343,312.855957 C283.235883,308.850403 285.987321,305.762055 289.206738,303.59082 C292.426155,301.419585 295.963717,300.333984 299.819531,300.333984 Z M336.113281,363 L312.753906,301.457031 L322.749023,301.457031 L336.000976,337.956055 C338.995783,346.491254 340.755205,352.031563 341.279297,354.577148 L341.728515,354.577148 C342.140301,352.593089 343.441151,348.48465 345.631103,342.251709 C347.821056,336.018768 352.734336,322.420678 360.371093,301.457031 L370.366211,301.457031 L347.006836,363 L336.113281,363 Z M422.045703,363 L420.192675,354.240234 L419.743457,354.240234 C416.67378,358.096048 413.613508,360.707106 410.562549,362.073486 C407.511589,363.439867 403.702627,364.123047 399.135547,364.123047 C393.033628,364.123047 388.251368,362.550797 384.788623,359.40625 C381.325878,356.261703 379.594531,351.788278 379.594531,345.98584 C379.594531,333.557392 389.533396,327.043786 409.411425,326.444824 L419.855761,326.10791 L419.855761,322.289551 C419.855761,317.460425 418.816953,313.894787 416.739306,311.592529 C414.661659,309.290272 411.339345,308.13916 406.772265,308.13916 C401.643659,308.13916 395.841308,309.71141 389.365039,312.855957 L386.501269,305.724609 C389.533511,304.077466 392.855825,302.785975 396.46831,301.850098 C400.080796,300.914221 403.702586,300.446289 407.333789,300.446289 C414.671065,300.446289 420.108429,302.074691 423.646045,305.331543 C427.18366,308.588395 428.952441,313.810511 428.952441,320.998047 L428.952441,363 L422.045703,363 Z M400.988574,356.430176 C406.791012,356.430176 411.348665,354.839209 414.66167,351.657227 C417.974674,348.475245 419.631152,344.020536 419.631152,338.292969 L419.631152,332.733887 L410.309863,333.126953 C402.897717,333.388999 397.553939,334.54011 394.278369,336.580322 C391.002799,338.620534 389.365039,341.79311 389.365039,346.098145 C389.365039,349.467302 390.385129,352.031567 392.425341,353.791016 C394.465554,355.550465 397.319936,356.430176 400.988574,356.430176 Z M471.984472,356.430176 C473.631616,356.430176 475.222583,356.308514 476.757422,356.065186 C478.29226,355.821858 479.508882,355.569174 480.407324,355.307129 L480.407324,362.438477 C479.396577,362.925133 477.908554,363.327554 475.943213,363.645752 C473.977871,363.96395 472.20909,364.123047 470.636816,364.123047 C458.73246,364.123047 452.780371,357.852765 452.780371,345.312012 L452.780371,308.700684 L443.964453,308.700684 L443.964453,304.208496 L452.780371,300.333984 L456.711035,287.194336 L462.10166,287.194336 L462.10166,301.457031 L479.958105,301.457031 L479.958105,308.700684 L462.10166,308.700684 L462.10166,344.918945 C462.10166,348.625019 462.981371,351.470042 464.74082,353.454102 C466.500269,355.438161 468.914796,356.430176 471.984472,356.430176 Z M549.774804,332.172363 C549.774804,342.204966 547.247974,350.038139 542.194238,355.672119 C537.140502,361.306099 530.158964,364.123047 521.249414,364.123047 C515.746457,364.123047 510.861252,362.831556 506.593652,360.248535 C502.326053,357.665514 499.031815,353.959497 496.71084,349.130371 C494.389864,344.301245 493.229394,338.648633 493.229394,332.172363 C493.229394,322.139761 495.737507,314.325305 500.753808,308.72876 C505.77011,303.132215 512.73293,300.333984 521.64248,300.333984 C530.252549,300.333984 537.093708,303.197725 542.166162,308.925293 C547.238616,314.652861 549.774804,322.401807 549.774804,332.172363 Z M502.887597,332.172363 C502.887597,340.033731 504.459847,346.023254 507.604394,350.141113 C510.748941,354.258972 515.372105,356.317871 521.474023,356.317871 C527.575942,356.317871 532.208464,354.268331 535.371728,350.169189 C538.534993,346.070048 540.116601,340.071166 540.116601,332.172363 C540.116601,324.348431 538.534993,318.405701 535.371728,314.343994 C532.208464,310.282288 527.538507,308.251465 521.361719,308.251465 C515.2598,308.251465 510.655354,310.254212 507.548242,314.259766 C504.44113,318.26532 502.887597,324.236126 502.887597,332.172363 Z M651.617676,341.156738 C651.617676,348.381709 648.997259,354.015605 643.756348,358.058594 C638.515436,362.101583 631.402877,364.123047 622.418457,364.123047 C612.685335,364.123047 605.198431,362.86899 599.957519,360.36084 L599.957519,351.151855 C603.326677,352.574389 606.99526,353.697424 610.963379,354.520996 C614.931498,355.344568 618.862122,355.756348 622.755371,355.756348 C629.119335,355.756348 633.910954,354.549084 637.130371,352.134521 C640.349788,349.719959 641.959473,346.36021 641.959473,342.055176 C641.959473,339.210109 641.388596,336.879811 640.246826,335.064209 C639.105056,333.248607 637.195895,331.573413 634.519287,330.038574 C631.842679,328.503736 627.771674,326.763031 622.306152,324.816406 C614.669395,322.083645 609.213314,318.845559 605.937744,315.102051 C602.662174,311.358542 601.024414,306.473337 601.024414,300.446289 C601.024414,294.11976 603.401506,289.084817 608.155762,285.341309 C612.910017,281.5978 619.199017,279.726074 627.022949,279.726074 C635.183797,279.726074 642.689419,281.223455 649.540039,284.218262 L646.563965,292.528809 C639.788215,289.683742 633.199739,288.26123 626.79834,288.26123 C621.744604,288.26123 617.795262,289.346832 614.950195,291.518066 C612.105129,293.689301 610.682617,296.70278 610.682617,300.558594 C610.682617,303.40366 611.2067,305.733959 612.254883,307.549561 C613.303065,309.365162 615.071846,311.030998 617.561279,312.547119 C620.050712,314.06324 623.859675,315.738435 628.988281,317.572754 C637.59835,320.642431 643.522363,323.936669 646.760498,327.455566 C649.998633,330.974464 651.617676,335.541476 651.617676,341.156738 Z M661.18291,301.457031 L671.178027,301.457031 L684.65459,336.552246 C687.611961,344.563354 689.446253,350.346987 690.157519,353.90332 L690.606738,353.90332 C691.093394,351.994131 692.113485,348.727969 693.667041,344.104736 C695.220597,339.481504 700.302333,325.265744 708.912402,301.457031 L718.907519,301.457031 L692.459766,371.535156 C689.83931,378.460647 686.779038,383.373928 683.278857,386.275146 C679.778677,389.176365 675.483066,390.626953 670.391894,390.626953 C667.546828,390.626953 664.739239,390.30876 661.969043,389.672363 L661.969043,382.204102 C664.027972,382.653323 666.330196,382.87793 668.875781,382.87793 C675.27718,382.87793 679.844192,379.284216 682.576953,372.09668 L686.002246,363.336914 L661.18291,301.457031 Z M772.552344,346.210449 C772.552344,351.938017 770.418576,356.35529 766.150977,359.462402 C761.883377,362.569514 755.893854,364.123047 748.182227,364.123047 C740.021378,364.123047 733.65751,362.831556 729.09043,360.248535 L729.09043,351.601074 C732.047801,353.098478 735.220377,354.277665 738.608252,355.138672 C741.996127,355.999679 745.262289,356.430176 748.406836,356.430176 C753.273397,356.430176 757.016849,355.653409 759.637305,354.099854 C762.25776,352.546298 763.567969,350.178564 763.567969,346.996582 C763.567969,344.600737 762.529161,342.551197 760.451514,340.8479 C758.373867,339.144604 754.32158,337.132499 748.294531,334.811523 C742.566964,332.677724 738.495959,330.815356 736.081396,329.224365 C733.666834,327.633374 731.869977,325.827159 730.690771,323.805664 C729.511566,321.78417 728.921973,319.369643 728.921973,316.562012 C728.921973,311.545711 730.962154,307.58701 735.042578,304.685791 C739.123002,301.784572 744.719463,300.333984 751.832129,300.333984 C758.458139,300.333984 764.934311,301.681627 771.26084,304.376953 L767.947852,311.95752 C761.771063,309.411934 756.174602,308.13916 751.158301,308.13916 C746.740961,308.13916 743.409289,308.831699 741.163184,310.216797 C738.917079,311.601895 737.794043,313.511056 737.794043,315.944336 C737.794043,317.59148 738.215181,318.995274 739.057471,320.155762 C739.89976,321.316249 741.256761,322.420568 743.128516,323.46875 C745.00027,324.516932 748.593984,326.03303 753.909766,328.01709 C761.209607,330.674981 766.141605,333.351549 768.705908,336.046875 C771.270211,338.742201 772.552344,342.130025 772.552344,346.210449 Z M811.541406,356.430176 C813.18855,356.430176 814.779517,356.308514 816.314355,356.065186 C817.849194,355.821858 819.065816,355.569174 819.964258,355.307129 L819.964258,362.438477 C818.953511,362.925133 817.465488,363.327554 815.500147,363.645752 C813.534805,363.96395 811.766024,364.123047 810.19375,364.123047 C798.289394,364.123047 792.337305,357.852765 792.337305,345.312012 L792.337305,308.700684 L783.521387,308.700684 L783.521387,304.208496 L792.337305,300.333984 L796.267969,287.194336 L801.658594,287.194336 L801.658594,301.457031 L819.515039,301.457031 L819.515039,308.700684 L801.658594,308.700684 L801.658594,344.918945 C801.658594,348.625019 802.538305,351.470042 804.297754,353.454102 C806.057203,355.438161 808.471729,356.430176 811.541406,356.430176 Z M862.210156,364.123047 C853.113431,364.123047 845.935362,361.352892 840.675732,355.8125 C835.416103,350.272108 832.786328,342.579314 832.786328,332.733887 C832.786328,322.81359 835.228931,314.933623 840.114209,309.09375 C844.999487,303.253877 851.559887,300.333984 859.795606,300.333984 C867.507233,300.333984 873.60906,302.870173 878.10127,307.942627 C882.59348,313.015081 884.839551,319.706501 884.839551,328.01709 L884.839551,333.913086 L842.444531,333.913086 C842.631707,341.138057 844.45664,346.622214 847.919385,350.365723 C851.38213,354.109231 856.257976,355.980957 862.54707,355.980957 C869.17308,355.980957 875.724121,354.59588 882.200391,351.825684 L882.200391,360.13623 C878.906103,361.558764 875.789679,362.578854 872.851025,363.196533 C869.912371,363.814212 866.365451,364.123047 862.210156,364.123047 Z M859.683301,308.13916 C854.74187,308.13916 850.801887,309.748845 847.863232,312.968262 C844.924578,316.187679 843.193232,320.642387 842.669141,326.33252 L874.844434,326.33252 C874.844434,320.455211 873.534225,315.95371 870.91377,312.827881 C868.293314,309.702051 864.549862,308.13916 859.683301,308.13916 Z M983.125488,363 L983.125488,322.963379 C983.125488,318.059383 982.077322,314.381441 979.980957,311.929443 C977.884593,309.477445 974.627789,308.251465 970.210449,308.251465 C964.408011,308.251465 960.121759,309.917301 957.351563,313.249023 C954.581366,316.580746 953.196289,321.709275 953.196289,328.634766 L953.196289,363 L943.875,363 L943.875,322.963379 C943.875,318.059383 942.826834,314.381441 940.730469,311.929443 C938.634104,309.477445 935.358584,308.251465 930.903809,308.251465 C925.063936,308.251465 920.787042,310.001529 918.072998,313.501709 C915.358955,317.001889 914.001953,322.73873 914.001953,330.712402 L914.001953,363 L904.680664,363 L904.680664,301.457031 L912.261231,301.457031 L913.777344,309.879883 L914.226563,309.879883 C915.986012,306.885076 918.466049,304.545419 921.666748,302.86084 C924.867448,301.176261 928.451803,300.333984 932.419922,300.333984 C942.040738,300.333984 948.329738,303.815395 951.287109,310.77832 L951.736328,310.77832 C953.570647,307.558903 956.228498,305.013356 959.709961,303.141602 C963.191424,301.269847 967.159483,300.333984 971.614258,300.333984 C978.577183,300.333984 983.78994,302.121483 987.252686,305.696533 C990.715431,309.271584 992.446777,314.989707 992.446777,322.851074 L992.446777,363 L983.125488,363 Z M1055.30059,346.210449 C1055.30059,351.938017 1053.16682,356.35529 1048.89922,359.462402 C1044.63162,362.569514 1038.6421,364.123047 1030.93047,364.123047 C1022.76962,364.123047 1016.40575,362.831556 1011.83867,360.248535 L1011.83867,351.601074 C1014.79604,353.098478 1017.96862,354.277665 1021.35649,355.138672 C1024.74437,355.999679 1028.01053,356.430176 1031.15508,356.430176 C1036.02164,356.430176 1039.76509,355.653409 1042.38555,354.099854 C1045.006,352.546298 1046.31621,350.178564 1046.31621,346.996582 C1046.31621,344.600737 1045.2774,342.551197 1043.19976,340.8479 C1041.12211,339.144604 1037.06982,337.132499 1031.04277,334.811523 C1025.31521,332.677724 1021.2442,330.815356 1018.82964,329.224365 C1016.41508,327.633374 1014.61822,325.827159 1013.43901,323.805664 C1012.25981,321.78417 1011.67022,319.369643 1011.67022,316.562012 C1011.67022,311.545711 1013.7104,307.58701 1017.79082,304.685791 C1021.87124,301.784572 1027.46771,300.333984 1034.58037,300.333984 C1041.20638,300.333984 1047.68255,301.681627 1054.00908,304.376953 L1050.69609,311.95752 C1044.51931,309.411934 1038.92284,308.13916 1033.90654,308.13916 C1029.4892,308.13916 1026.15753,308.831699 1023.91143,310.216797 C1021.66532,311.601895 1020.54229,313.511056 1020.54229,315.944336 C1020.54229,317.59148 1020.96342,318.995274 1021.80571,320.155762 C1022.648,321.316249 1024.005,322.420568 1025.87676,323.46875 C1027.74851,324.516932 1031.34223,326.03303 1036.65801,328.01709 C1043.95785,330.674981 1048.88985,333.351549 1051.45415,336.046875 C1054.01845,338.742201 1055.30059,342.130025 1055.30059,346.210449 Z M1144.78994,288.26123 C1135.76809,288.26123 1128.64617,291.265351 1123.42397,297.273682 C1118.20178,303.282012 1115.59072,311.508249 1115.59072,321.952637 C1115.59072,332.696506 1118.10819,340.997611 1123.14321,346.856201 C1128.17823,352.714792 1135.3563,355.644043 1144.67764,355.644043 C1150.4052,355.644043 1156.93753,354.614594 1164.2748,352.555664 L1164.2748,360.922363 C1158.58467,363.056163 1151.5657,364.123047 1143.21768,364.123047 C1131.12614,364.123047 1121.79559,360.454464 1115.22573,353.117188 C1108.65588,345.779911 1105.371,335.354397 1105.371,321.840332 C1105.371,313.380003 1106.9526,305.967968 1110.11587,299.604004 C1113.27913,293.24004 1117.84615,288.336117 1123.81704,284.89209 C1129.78794,281.448062 1136.81627,279.726074 1144.90225,279.726074 C1153.51232,279.726074 1161.03665,281.298324 1167.47549,284.442871 L1163.43252,292.641113 C1157.2183,289.721177 1151.00417,288.26123 1144.78994,288.26123 Z M1237.85371,332.172363 C1237.85371,342.204966 1235.32688,350.038139 1230.27314,355.672119 C1225.21941,361.306099 1218.23787,364.123047 1209.32832,364.123047 C1203.82536,364.123047 1198.94016,362.831556 1194.67256,360.248535 C1190.40496,357.665514 1187.11072,353.959497 1184.78975,349.130371 C1182.46877,344.301245 1181.3083,338.648633 1181.3083,332.172363 C1181.3083,322.139761 1183.81641,314.325305 1188.83272,308.72876 C1193.84902,303.132215 1200.81184,300.333984 1209.72139,300.333984 C1218.33146,300.333984 1225.17261,303.197725 1230.24507,308.925293 C1235.31752,314.652861 1237.85371,322.401807 1237.85371,332.172363 Z M1190.9665,332.172363 C1190.9665,340.033731 1192.53875,346.023254 1195.6833,350.141113 C1198.82785,354.258972 1203.45101,356.317871 1209.55293,356.317871 C1215.65485,356.317871 1220.28737,354.268331 1223.45064,350.169189 C1226.6139,346.070048 1228.19551,340.071166 1228.19551,332.172363 C1228.19551,324.348431 1226.6139,318.405701 1223.45064,314.343994 C1220.28737,310.282288 1215.61741,308.251465 1209.44063,308.251465 C1203.33871,308.251465 1198.73426,310.254212 1195.62715,314.259766 C1192.52004,318.26532 1190.9665,324.236126 1190.9665,332.172363 Z M1336.58887,363 L1336.58887,322.963379 C1336.58887,318.059383 1335.5407,314.381441 1333.44434,311.929443 C1331.34797,309.477445 1328.09117,308.251465 1323.67383,308.251465 C1317.87139,308.251465 1313.58514,309.917301 1310.81494,313.249023 C1308.04475,316.580746 1306.65967,321.709275 1306.65967,328.634766 L1306.65967,363 L1297.33838,363 L1297.33838,322.963379 C1297.33838,318.059383 1296.29021,314.381441 1294.19385,311.929443 C1292.09748,309.477445 1288.82196,308.251465 1284.36719,308.251465 C1278.52731,308.251465 1274.25042,310.001529 1271.53638,313.501709 C1268.82233,317.001889 1267.46533,322.73873 1267.46533,330.712402 L1267.46533,363 L1258.14404,363 L1258.14404,301.457031 L1265.72461,301.457031 L1267.24072,309.879883 L1267.68994,309.879883 C1269.44939,306.885076 1271.92943,304.545419 1275.13013,302.86084 C1278.33083,301.176261 1281.91518,300.333984 1285.8833,300.333984 C1295.50412,300.333984 1301.79312,303.815395 1304.75049,310.77832 L1305.19971,310.77832 C1307.03403,307.558903 1309.69188,305.013356 1313.17334,303.141602 C1316.6548,301.269847 1320.62286,300.333984 1325.07764,300.333984 C1332.04056,300.333984 1337.25332,302.121483 1340.71606,305.696533 C1344.17881,309.271584 1345.91016,314.989707 1345.91016,322.851074 L1345.91016,363 L1336.58887,363 Z M1397.70195,364.123047 C1393.6964,364.123047 1390.03718,363.383715 1386.72417,361.905029 C1383.41117,360.426344 1380.63165,358.152196 1378.38555,355.08252 L1377.71172,355.08252 C1378.16094,358.676288 1378.38555,362.082829 1378.38555,365.302246 L1378.38555,390.626953 L1369.06426,390.626953 L1369.06426,301.457031 L1376.64482,301.457031 L1377.93633,309.879883 L1378.38555,309.879883 C1380.78139,306.510725 1383.57026,304.077481 1386.75225,302.580078 C1389.93423,301.082675 1393.58409,300.333984 1397.70195,300.333984 C1405.8628,300.333984 1412.16116,303.122856 1416.59722,308.700684 C1421.03327,314.278511 1423.25127,322.102326 1423.25127,332.172363 C1423.25127,342.279836 1420.99584,350.131727 1416.48491,355.728271 C1411.97399,361.324816 1405.71306,364.123047 1397.70195,364.123047 Z M1396.3543,308.251465 C1390.0652,308.251465 1385.51691,309.99217 1382.70928,313.473633 C1379.90165,316.955096 1378.46042,322.495405 1378.38555,330.094727 L1378.38555,332.172363 C1378.38555,340.819867 1379.82678,347.005922 1382.70928,350.730713 C1385.59178,354.455504 1390.21494,356.317871 1396.57891,356.317871 C1401.89469,356.317871 1406.05928,354.165386 1409.0728,349.860352 C1412.08633,345.555317 1413.59307,339.621945 1413.59307,332.060059 C1413.59307,324.385867 1412.08633,318.499288 1409.0728,314.400146 C1406.05928,310.301005 1401.81982,308.251465 1396.3543,308.251465 Z M1481.33213,363 L1479.4791,354.240234 L1479.02988,354.240234 C1475.96021,358.096048 1472.89993,360.707106 1469.84898,362.073486 C1466.79802,363.439867 1462.98905,364.123047 1458.42197,364.123047 C1452.32005,364.123047 1447.53779,362.550797 1444.07505,359.40625 C1440.6123,356.261703 1438.88096,351.788278 1438.88096,345.98584 C1438.88096,333.557392 1448.81982,327.043786 1468.69785,326.444824 L1479.14219,326.10791 L1479.14219,322.289551 C1479.14219,317.460425 1478.10338,313.894787 1476.02573,311.592529 C1473.94809,309.290272 1470.62577,308.13916 1466.05869,308.13916 C1460.93009,308.13916 1455.12773,309.71141 1448.65147,312.855957 L1445.7877,305.724609 C1448.81994,304.077466 1452.14225,302.785975 1455.75474,301.850098 C1459.36722,300.914221 1462.98901,300.446289 1466.62022,300.446289 C1473.95749,300.446289 1479.39486,302.074691 1482.93247,305.331543 C1486.47009,308.588395 1488.23887,313.810511 1488.23887,320.998047 L1488.23887,363 L1481.33213,363 Z M1460.275,356.430176 C1466.07744,356.430176 1470.63509,354.839209 1473.9481,351.657227 C1477.2611,348.475245 1478.91758,344.020536 1478.91758,338.292969 L1478.91758,332.733887 L1469.59629,333.126953 C1462.18414,333.388999 1456.84037,334.54011 1453.5648,336.580322 C1450.28923,338.620534 1448.65147,341.79311 1448.65147,346.098145 C1448.65147,349.467302 1449.67156,352.031567 1451.71177,353.791016 C1453.75198,355.550465 1456.60636,356.430176 1460.275,356.430176 Z M1553.50723,363 L1553.50723,323.187988 C1553.50723,318.171687 1552.36547,314.428235 1550.08193,311.95752 C1547.79839,309.486804 1544.2234,308.251465 1539.35684,308.251465 C1532.918,308.251465 1528.20125,309.99217 1525.20645,313.473633 C1522.21164,316.955096 1520.71426,322.701295 1520.71426,330.712402 L1520.71426,363 L1511.39297,363 L1511.39297,301.457031 L1518.97354,301.457031 L1520.48965,309.879883 L1520.93887,309.879883 C1522.84806,306.847641 1525.52463,304.498625 1528.96865,302.832764 C1532.41268,301.166902 1536.24972,300.333984 1540.47988,300.333984 C1547.89203,300.333984 1553.46977,302.121483 1557.21328,305.696533 C1560.95679,309.271584 1562.82852,314.989707 1562.82852,322.851074 L1562.82852,363 L1553.50723,363 Z M1576.15596,301.457031 L1586.15107,301.457031 L1599.62764,336.552246 C1602.58501,344.563354 1604.4193,350.346987 1605.13057,353.90332 L1605.57979,353.90332 C1606.06644,351.994131 1607.08653,348.727969 1608.64009,344.104736 C1610.19364,339.481504 1615.27538,325.265744 1623.88545,301.457031 L1633.88057,301.457031 L1607.43281,371.535156 C1604.81236,378.460647 1601.75209,383.373928 1598.2519,386.275146 C1594.75172,389.176365 1590.45611,390.626953 1585.36494,390.626953 C1582.51988,390.626953 1579.71229,390.30876 1576.94209,389.672363 L1576.94209,382.204102 C1579.00102,382.653323 1581.30324,382.87793 1583.84883,382.87793 C1590.25023,382.87793 1594.81724,379.284216 1597.55,372.09668 L1600.97529,363.336914 L1576.15596,301.457031 Z"/>
  </g>
</svg>
